# xmcd
#
# Track frame offsets: 
#        150
#        14256
#        35917
#        56662
#        77330
#        89991
#        107454
#        122983
#        131429
#        143476
#        155548
#        169338
#        188068
#        203470
#        222025
#        235115
#        239824
#
# Disc length: 3387 seconds
#
# Revision: 0
# Processed by: cddbd v1.5.2PL0 Copyright (c) Steve Scherf et al.
# Submitted via: ExactAudioCopyFreeDBPlugin 1.0
#
DISCID=e90d3911
DTITLE=Candye Kane - The Power In You
DYEAR=2014
DGENRE=Blues
TTITLE0=I'm The Toughest Girl Alive
TTITLE1=Superhero
TTITLE2=You Need A Great Big Woman
TTITLE3=Love 'Em And Forgive 'Em
TTITLE4=I'm Not Gonna Cry Today
TTITLE5=Gifted In The Ways Of Love
TTITLE6=I Deserve Love
TTITLE7=I'm Not Getting Older (I'm Getting Better)
TTITLE8=Let There Be Peace On Earth (traditional)
TTITLE9=Work What You've Got (If It's A Little Or A Lot)
TTITLE10=200 Lbs Of Fun
TTITLE11=Everybody Needs Love
TTITLE12=Rise Up
TTITLE13=When Tomorrow Comes
TTITLE14=Hey! Toughen' Up!
TTITLE15=I'm Gonna Be Just Fine
TTITLE16=Fit Fat and Fine
EXTD=
EXTT0=
EXTT1=
EXTT2=
EXTT3=
EXTT4=
EXTT5=
EXTT6=
EXTT7=
EXTT8=
EXTT9=
EXTT10=
EXTT11=
EXTT12=
EXTT13=
EXTT14=
EXTT15=
EXTT16=
PLAYORDER=
